<?xml version="1.0" standalone="no"?>
<!DOCTYPE svg PUBLIC "-//W3C//DTD SVG 20010904//EN"
 "http://www.w3.org/TR/2001/REC-SVG-20010904/DTD/svg10.dtd">
<svg version="1.0" xmlns="http://www.w3.org/2000/svg"
 width="256.000000pt" height="256.000000pt" viewBox="0 0 256.000000 256.000000"
 preserveAspectRatio="xMidYMid meet">
<metadata>
Created by potrace 1.11, written by Peter Selinger 2001-2013
</metadata>
<g transform="translate(0.000000,256.000000) scale(0.100000,-0.100000)"
fill="#000000" stroke="none">
<path d="M1133 1570 c-21 -8 -18 -12 41 -73 82 -83 129 -175 134 -264 l4 -63
39 0 c46 0 48 8 23 104 -27 106 -78 198 -140 255 -58 53 -64 56 -101 41z"/>
<path d="M1611 1214 c-19 -8 -72 -38 -119 -67 -79 -48 -90 -52 -146 -51 -52 0
-78 8 -171 51 -184 86 -226 89 -354 28 -136 -65 -229 -189 -265 -352 -32 -146
-16 -361 41 -534 l28 -84 70 -37 c183 -97 362 -141 580 -142 170 0 273 16 413
66 156 55 350 167 393 228 55 76 86 356 55 500 -44 208 -183 361 -364 399 -71
15 -120 13 -161 -5z m162 -155 c66 -34 161 -132 196 -203 33 -68 58 -186 48
-228 -14 -56 -87 -43 -87 15 0 49 -28 147 -55 192 -33 56 -92 113 -147 141
-54 27 -68 56 -42 85 22 24 35 24 87 -2z"/>
</g>
</svg>
