<?xml version="1.0" standalone="no"?>
<!DOCTYPE svg PUBLIC "-//W3C//DTD SVG 20010904//EN"
 "http://www.w3.org/TR/2001/REC-SVG-20010904/DTD/svg10.dtd">
<svg version="1.0" xmlns="http://www.w3.org/2000/svg"
 width="176.000000pt" height="176.000000pt" viewBox="0 0 176.000000 176.000000"
 preserveAspectRatio="xMidYMid meet">
<metadata>
Created by potrace 1.11, written by Peter Selinger 2001-2013
</metadata>
<g transform="translate(0.000000,176.000000) scale(0.100000,-0.100000)"
fill="#000000" stroke="none">
<path d="M940 1540 c-19 -19 -20 -33 -20 -265 0 -232 1 -246 20 -265 19 -19
33 -20 265 -20 232 0 246 1 265 20 19 19 20 33 20 265 0 232 -1 246 -20 265
-19 19 -33 20 -265 20 -232 0 -246 -1 -265 -20z"/>
<path d="M310 900 c-19 -19 -20 -33 -20 -265 0 -232 1 -246 20 -265 19 -19 33
-20 260 -20 227 0 241 1 260 20 19 19 20 33 20 265 0 232 -1 246 -20 265 -19
19 -33 20 -260 20 -227 0 -241 -1 -260 -20z"/>
<path d="M940 900 c-19 -19 -20 -33 -20 -265 0 -232 1 -246 20 -265 19 -19 33
-20 265 -20 232 0 246 1 265 20 19 19 20 33 20 265 0 232 -1 246 -20 265 -19
19 -33 20 -265 20 -232 0 -246 -1 -265 -20z"/>
<path d="M632 263 c26 -4 27 -7 31 -71 l3 -67 2 67 c2 64 3 67 30 71 15 2 0 4
-33 4 -33 0 -48 -2 -33 -4z"/>
<path d="M740 195 l0 -65 33 1 c30 2 30 2 5 6 -36 6 -40 49 -5 56 l22 4 -22 2
c-17 1 -23 7 -23 25 0 18 7 26 23 29 19 4 18 4 -5 6 -28 1 -28 1 -28 -64z"/>
<path d="M827 253 c19 -4 23 -12 26 -66 l3 -62 2 62 c2 55 4 62 25 66 12 2 0
4 -28 4 -27 0 -40 -2 -28 -4z"/>
<path d="M931 193 c1 -38 4 -56 6 -40 5 34 26 35 47 2 9 -14 23 -25 32 -25 10
0 7 7 -11 23 -22 19 -25 26 -17 48 13 33 -2 59 -33 59 -24 0 -25 -2 -24 -67z
m44 27 c0 -16 -6 -26 -17 -28 -14 -3 -18 3 -18 28 0 25 4 31 18 28 11 -2 17
-12 17 -28z"/>
<path d="M1043 195 c0 -38 2 -53 4 -32 2 20 2 52 0 70 -2 17 -4 1 -4 -38z"/>
<path d="M1090 245 c-10 -12 -7 -20 20 -45 38 -36 35 -65 -6 -57 -16 3 -22 1
-16 -5 5 -5 20 -8 33 -6 34 4 37 41 5 66 -34 26 -33 50 2 55 l27 4 -26 2 c-15
0 -32 -6 -39 -14z"/>
</g>
</svg>
