<?xml version="1.0" standalone="no"?>
<!DOCTYPE svg PUBLIC "-//W3C//DTD SVG 20010904//EN"
 "http://www.w3.org/TR/2001/REC-SVG-20010904/DTD/svg10.dtd">
<svg version="1.0" xmlns="http://www.w3.org/2000/svg"
 width="500.000000pt" height="500.000000pt" viewBox="0 0 500.000000 500.000000"
 preserveAspectRatio="xMidYMid meet">
<metadata>
Created by potrace 1.11, written by Peter Selinger 2001-2013
</metadata>
<g transform="translate(0.000000,500.000000) scale(0.100000,-0.100000)"
fill="#000000" stroke="none">
<path d="M1593 4883 c-15 -3 -23 -12 -23 -24 0 -14 -7 -19 -25 -19 -18 0 -25
-5 -25 -19 0 -13 -8 -21 -22 -23 l-23 -3 -3 -625 c-2 -344 0 -649 3 -677 5
-44 10 -53 26 -53 12 0 19 -7 19 -20 0 -19 7 -20 140 -20 l140 0 0 25 c0 18 5
25 19 25 27 0 31 34 31 261 l0 199 650 0 650 0 0 -199 c0 -224 4 -257 31 -264
11 -3 19 -14 19 -26 0 -20 5 -21 140 -21 133 0 140 1 140 20 0 13 7 20 19 20
14 0 20 10 25 38 3 20 6 309 6 642 0 333 -3 622 -6 643 -5 27 -11 37 -25 37
-12 0 -19 7 -19 20 0 15 -7 20 -25 20 -18 0 -25 5 -25 19 0 16 -9 21 -45 27
-25 3 -65 3 -90 0 -36 -6 -45 -11 -45 -27 0 -14 -7 -19 -25 -19 -18 0 -25 -5
-25 -19 0 -13 -8 -21 -22 -23 l-23 -3 -3 -232 -2 -233 -650 0 -650 0 -2 233
-3 232 -22 -1 c-18 0 -23 5 -23 23 0 18 -5 23 -25 23 -18 0 -25 5 -25 19 0 27
-79 39 -157 24z m1557 -738 l0 -95 -650 0 -650 0 0 89 c0 85 1 90 23 94 12 2
304 5 650 6 l627 1 0 -95z"/>
<path d="M1100 4675 c0 -18 -5 -25 -20 -25 -20 0 -20 -7 -20 -510 0 -503 0
-510 20 -510 15 0 20 -7 20 -25 0 -18 5 -25 20 -25 13 0 20 -7 20 -20 0 -19 7
-20 95 -20 88 0 95 1 95 20 0 14 7 20 24 20 21 0 24 5 29 68 9 88 9 837 1 935
-6 66 -10 77 -25 77 -12 0 -19 7 -19 20 0 19 -7 20 -120 20 l-120 0 0 -25z"/>
<path d="M3616 4623 c-8 -98 -8 -887 1 -975 5 -63 8 -68 29 -68 17 0 24 -6 24
-20 0 -19 7 -20 90 -20 83 0 90 1 90 20 0 15 7 20 25 20 20 0 25 5 25 25 0 18
5 25 20 25 20 0 20 7 20 510 0 503 0 510 -20 510 -15 0 -20 7 -20 25 l0 25
-139 0 -138 0 -7 -77z"/>
<path d="M670 2415 l0 -645 540 0 540 0 0 350 0 350 -230 0 -230 0 0 -55 0
-55 150 0 150 0 0 -240 0 -240 -380 0 -380 0 0 535 0 535 460 0 460 0 0 55 0
55 -540 0 -540 0 0 -645z"/>
<path d="M1909 3043 c5 -10 109 -157 230 -328 l221 -310 0 -317 0 -318 75 0
75 0 0 318 0 317 221 328 220 327 -85 0 -85 0 -168 -242 c-92 -133 -172 -243
-178 -244 -5 -1 -91 107 -190 241 l-180 244 -83 1 c-76 0 -82 -1 -73 -17z"/>
<path d="M3100 2415 l0 -645 75 0 75 0 0 565 c0 311 3 565 8 565 4 0 108 -59
231 -130 l224 -130 225 130 c123 71 226 130 228 130 2 0 4 -254 4 -565 l0
-565 80 0 80 0 0 645 0 645 -80 0 -80 0 -226 -131 c-198 -115 -228 -130 -249
-121 -12 6 -116 65 -230 131 l-207 121 -79 0 -79 0 0 -645z"/>
<path d="M670 1475 l0 -55 185 0 185 0 0 -590 0 -590 80 0 80 0 0 590 0 590
185 0 185 0 0 55 0 55 -450 0 -450 0 0 -55z"/>
<path d="M1720 885 l0 -645 80 0 80 0 0 645 0 645 -80 0 -80 0 0 -645z"/>
<path d="M2050 885 l0 -645 75 0 75 0 0 565 c0 311 2 565 5 565 3 0 105 -59
226 -131 l220 -131 220 131 c122 72 223 131 225 131 2 0 4 -254 4 -565 l0
-565 75 0 75 0 0 645 0 645 -75 0 -76 0 -219 -130 c-120 -71 -223 -130 -229
-130 -6 0 -109 59 -230 130 l-219 130 -76 0 -76 0 0 -645z"/>
<path d="M3430 885 l0 -645 450 0 450 0 0 55 0 55 -375 0 -375 0 0 240 0 240
375 0 375 0 0 55 0 55 -375 0 -375 0 0 240 0 240 375 0 375 0 0 55 0 55 -450
0 -450 0 0 -645z"/>
</g>
</svg>
